<svg width="189" height="90" viewBox="0 0 189 90" fill="none" xmlns="http://www.w3.org/2000/svg">
<path d="M39.8489 65.8838C32.5297 65.8838 26.837 70.9517 26.837 77.4676C26.837 83.9836 32.5297 89.0516 39.8489 89.0516C47.1681 89.0516 52.8609 83.9836 52.8609 77.4676C52.8609 70.9517 47.1681 65.8838 39.8489 65.8838ZM117.107 0H110.601V14.1179H134.999L117.107 0ZM0.81317 79.6397H17.0781C17.0781 79.6397 17.8913 57.9198 41.4754 57.9198C58.9602 57.9198 61.8065 79.6397 61.8065 79.6397H102.469V0H0L0.81317 79.6397ZM154.516 65.8838C147.197 65.8838 141.505 70.9517 141.505 77.4676C141.505 83.9836 147.197 89.0516 154.516 89.0516C161.836 89.0516 167.528 83.9836 167.528 77.4676C167.528 70.9517 161.429 65.8838 154.516 65.8838ZM139.065 18.0999H110.601V79.6397H134.999C134.999 79.6397 131.746 61.5397 155.33 61.5397C173.221 61.5397 172.814 79.6397 172.814 79.6397H187.86L188.673 52.4898L139.065 18.0999ZM134.999 65.1597H118.734V57.9198H134.999V65.1597ZM133.372 52.1278L117.107 43.4398V23.1679H133.372L175.661 52.1278H133.372Z" fill="white" fill-opacity="0.4"/>
</svg>
